# Blender 4.3.2
# www.blender.org
mtllib objTest.mtl
o Cube01
v -1.000000 -1.000000 1.000000
v -1.000000 1.000000 1.000000
v -1.000000 -1.000000 -1.000000
v -1.000000 1.000000 -1.000000
v 1.000000 -1.000000 1.000000
v 1.000000 1.000000 1.000000
v 1.000000 -1.000000 -1.000000
v 1.000000 1.000000 -1.000000
v -1.000000 -1.000000 -1.000000
v -1.000000 -1.000000 -1.000000
v -1.000000 -1.000000 -1.000000
v -1.000000 -1.000000 1.000000
v -1.000000 -1.000000 1.000000
v -1.000000 -1.000000 1.000000
v -1.000000 -1.000000 1.000000
v -1.000000 1.000000 1.000000
v -1.000000 1.000000 1.000000
v -1.000000 1.000000 1.000000
v -1.000000 1.000000 -1.000000
v -1.000000 1.000000 -1.000000
v -1.000000 1.000000 -1.000000
v -1.000000 1.000000 -1.000000
v 1.000000 -1.000000 -1.000000
v 1.000000 -1.000000 -1.000000
v 1.000000 -1.000000 -1.000000
v 1.000000 -1.000000 -1.000000
v 1.000000 1.000000 -1.000000
v 1.000000 1.000000 -1.000000
v 1.000000 1.000000 -1.000000
v 1.000000 -1.000000 1.000000
v 1.000000 -1.000000 1.000000
v 1.000000 -1.000000 1.000000
v 1.000000 1.000000 1.000000
v 1.000000 1.000000 1.000000
v 1.000000 1.000000 1.000000
v 1.000000 1.000000 1.000000
vn -1.0000 -0.0000 -0.0000
vn -0.0000 -0.0000 -1.0000
vn 1.0000 -0.0000 -0.0000
vn -0.0000 -0.0000 1.0000
vn -0.0000 -1.0000 -0.0000
vn -0.0000 1.0000 -0.0000
vt 0.000000 1.000000
vt 1.000000 0.000000
vt 0.000000 0.000000
vt 1.000000 1.000000
s 0
usemtl Material01
f 16/1/1 9/2/1 12/3/1
f 22/1/2 23/2/2 11/3/2
f 8/4/3 30/3/3 25/2/3
f 36/4/4 13/3/4 32/2/4
f 7/4/5 1/3/5 3/1/5
f 4/1/6 6/2/6 29/4/6
f 17/1/1 19/4/1 10/2/1
f 20/1/2 27/4/2 24/2/2
f 28/4/3 33/1/3 31/3/3
f 34/4/4 18/1/4 14/3/4
f 26/4/5 5/2/5 15/3/5
f 21/1/6 2/3/6 35/2/6
o Cube02
v -1.000000 -1.000000 -2.000000
v -1.000000 1.000000 -2.000000
v -1.000000 -1.000000 -4.000000
v -1.000000 1.000000 -4.000000
v 1.000000 -1.000000 -2.000000
v 1.000000 1.000000 -2.000000
v 1.000000 -1.000000 -4.000000
v 1.000000 1.000000 -4.000000
v -1.000000 -1.000000 -4.000000
v -1.000000 -1.000000 -4.000000
v -1.000000 -1.000000 -4.000000
v -1.000000 -1.000000 -2.000000
v -1.000000 -1.000000 -2.000000
v -1.000000 -1.000000 -2.000000
v -1.000000 -1.000000 -2.000000
v -1.000000 1.000000 -2.000000
v -1.000000 1.000000 -2.000000
v -1.000000 1.000000 -2.000000
v -1.000000 1.000000 -4.000000
v -1.000000 1.000000 -4.000000
v -1.000000 1.000000 -4.000000
v -1.000000 1.000000 -4.000000
v 1.000000 -1.000000 -4.000000
v 1.000000 -1.000000 -4.000000
v 1.000000 -1.000000 -4.000000
v 1.000000 -1.000000 -4.000000
v 1.000000 1.000000 -4.000000
v 1.000000 1.000000 -4.000000
v 1.000000 1.000000 -4.000000
v 1.000000 -1.000000 -2.000000
v 1.000000 -1.000000 -2.000000
v 1.000000 -1.000000 -2.000000
v 1.000000 1.000000 -2.000000
v 1.000000 1.000000 -2.000000
v 1.000000 1.000000 -2.000000
v 1.000000 1.000000 -2.000000
vn -1.0000 -0.0000 -0.0000
vn -0.0000 -0.0000 -1.0000
vn 1.0000 -0.0000 -0.0000
vn -0.0000 -0.0000 1.0000
vn -0.0000 -1.0000 -0.0000
vn -0.0000 1.0000 -0.0000
vt 0.000000 1.000000
vt 1.000000 0.000000
vt 0.000000 0.000000
vt 1.000000 1.000000
s 0
usemtl Material02
f 52/5/7 45/6/7 48/7/7
f 58/5/8 59/6/8 47/7/8
f 44/8/9 66/7/9 61/6/9
f 72/8/10 49/7/10 68/6/10
f 43/8/11 37/7/11 39/5/11
f 40/5/12 42/6/12 65/8/12
f 53/5/7 55/8/7 46/6/7
f 56/5/8 63/8/8 60/6/8
f 64/8/9 69/5/9 67/7/9
f 70/8/10 54/5/10 50/7/10
f 62/8/11 41/6/11 51/7/11
f 57/5/12 38/7/12 71/6/12
o Cube03
v -1.000000 -1.000000 4.000000
v -1.000000 1.000000 4.000000
v -1.000000 -1.000000 2.000000
v -1.000000 1.000000 2.000000
v 1.000000 -1.000000 4.000000
v 1.000000 1.000000 4.000000
v 1.000000 -1.000000 2.000000
v 1.000000 1.000000 2.000000
v -1.000000 -1.000000 2.000000
v -1.000000 -1.000000 2.000000
v -1.000000 -1.000000 2.000000
v -1.000000 -1.000000 4.000000
v -1.000000 -1.000000 4.000000
v -1.000000 -1.000000 4.000000
v -1.000000 -1.000000 4.000000
v -1.000000 1.000000 4.000000
v -1.000000 1.000000 4.000000
v -1.000000 1.000000 4.000000
v -1.000000 1.000000 2.000000
v -1.000000 1.000000 2.000000
v -1.000000 1.000000 2.000000
v -1.000000 1.000000 2.000000
v 1.000000 -1.000000 2.000000
v 1.000000 -1.000000 2.000000
v 1.000000 -1.000000 2.000000
v 1.000000 -1.000000 2.000000
v 1.000000 1.000000 2.000000
v 1.000000 1.000000 2.000000
v 1.000000 1.000000 2.000000
v 1.000000 -1.000000 4.000000
v 1.000000 -1.000000 4.000000
v 1.000000 -1.000000 4.000000
v 1.000000 1.000000 4.000000
v 1.000000 1.000000 4.000000
v 1.000000 1.000000 4.000000
v 1.000000 1.000000 4.000000
vn -1.0000 -0.0000 -0.0000
vn -0.0000 -0.0000 -1.0000
vn 1.0000 -0.0000 -0.0000
vn -0.0000 -0.0000 1.0000
vn -0.0000 -1.0000 -0.0000
vn -0.0000 1.0000 -0.0000
vt 0.000000 1.000000
vt 1.000000 0.000000
vt 0.000000 0.000000
vt 1.000000 1.000000
s 0
usemtl Material03
f 88/9/13 81/10/13 84/11/13
f 94/9/14 95/10/14 83/11/14
f 80/12/15 102/11/15 97/10/15
f 108/12/16 85/11/16 104/10/16
f 79/12/17 73/11/17 75/9/17
f 76/9/18 78/10/18 101/12/18
f 89/9/13 91/12/13 82/10/13
f 92/9/14 99/12/14 96/10/14
f 100/12/15 105/9/15 103/11/15
f 106/12/16 90/9/16 86/11/16
f 98/12/17 77/10/17 87/11/17
f 93/9/18 74/11/18 107/10/18
